<svg xmlns="http://www.w3.org/2000/svg" width="48.896" height="48.896" viewBox="0 0 48.896 48.896">
  <path id="home" d="M47.583,21.267l0,0L27.631,1.319a4.5,4.5,0,0,0-6.367,0L1.327,21.254l-.02.021a4.5,4.5,0,0,0,3,7.669q.069.007.139.007h.8V43.628A5.274,5.274,0,0,0,10.506,48.9h7.8a1.433,1.433,0,0,0,1.433-1.433V35.956a2.406,2.406,0,0,1,2.4-2.4h4.6a2.406,2.406,0,0,1,2.4,2.4V47.463A1.432,1.432,0,0,0,30.586,48.9h7.8a5.274,5.274,0,0,0,5.269-5.268V28.95H44.4a4.5,4.5,0,0,0,3.186-7.683Zm0,0" transform="translate(0)" fill="#25eaef"/>
</svg>
