<svg xmlns="http://www.w3.org/2000/svg" width="27.778" height="27.778" viewBox="0 0 27.778 27.778">
  <path id="instagram-brands" d="M13.817,38.592a7.122,7.122,0,1,0,7.12,7.122A7.11,7.11,0,0,0,13.817,38.592Zm0,11.752a4.63,4.63,0,1,1,4.629-4.63,4.638,4.638,0,0,1-4.629,4.63ZM22.889,38.3a1.661,1.661,0,1,1-1.661-1.661A1.657,1.657,0,0,1,22.889,38.3Zm4.716,1.686a8.222,8.222,0,0,0-2.243-5.82,8.272,8.272,0,0,0-5.819-2.244c-2.293-.13-9.165-.13-11.458,0A8.26,8.26,0,0,0,2.266,34.16,8.249,8.249,0,0,0,.023,39.98c-.13,2.293-.13,9.167,0,11.461a8.222,8.222,0,0,0,2.243,5.82,8.282,8.282,0,0,0,5.819,2.244c2.293.13,9.165.13,11.458,0a8.218,8.218,0,0,0,5.819-2.244,8.276,8.276,0,0,0,2.243-5.82C27.735,49.148,27.735,42.28,27.605,39.987ZM24.643,53.9A4.687,4.687,0,0,1,22,56.542c-1.828.725-6.166.558-8.186.558s-6.364.161-8.186-.558a4.687,4.687,0,0,1-2.64-2.64c-.725-1.829-.558-6.167-.558-8.188s-.161-6.366.558-8.188a4.687,4.687,0,0,1,2.64-2.64c1.828-.725,6.166-.558,8.186-.558s6.364-.161,8.186.558a4.687,4.687,0,0,1,2.64,2.64c.725,1.829.558,6.167.558,8.188S25.368,52.08,24.643,53.9Z" transform="translate(0.075 -31.825)" fill="#0ef"/>
</svg>
