<svg xmlns="http://www.w3.org/2000/svg" width="27.778" height="27.778" viewBox="0 0 27.778 27.778">
  <path id="phone-square-alt-solid" d="M24.8,32H2.976A2.976,2.976,0,0,0,0,34.976V56.8a2.976,2.976,0,0,0,2.976,2.976H24.8A2.976,2.976,0,0,0,27.778,56.8V34.976A2.976,2.976,0,0,0,24.8,32ZM23.785,51.058l-.93,4.03a.93.93,0,0,1-.906.721A17.983,17.983,0,0,1,3.968,37.828a.973.973,0,0,1,.721-.906l4.03-.93a1.131,1.131,0,0,1,.209-.024,1.009,1.009,0,0,1,.855.564l1.86,4.34a1.11,1.11,0,0,1,.075.366,1.054,1.054,0,0,1-.341.72L9.028,43.881A14.379,14.379,0,0,0,15.9,50.749L17.819,48.4a1.054,1.054,0,0,1,.72-.341,1.107,1.107,0,0,1,.366.075l4.34,1.86a1.008,1.008,0,0,1,.564.855A1.079,1.079,0,0,1,23.785,51.058Z" transform="translate(0 -32)" fill="#0ef"/>
</svg>
