<svg xmlns="http://www.w3.org/2000/svg" width="20" height="20" viewBox="0 0 20 20">
  <path id="trash-alt-solid" d="M1.429,18.125A2.022,2.022,0,0,0,3.571,20H16.429a2.022,2.022,0,0,0,2.143-1.875V5H1.429Zm12.143-10a.721.721,0,0,1,1.429,0v8.75a.721.721,0,0,1-1.429,0Zm-4.286,0a.721.721,0,0,1,1.429,0v8.75a.721.721,0,0,1-1.429,0ZM5,8.125A.674.674,0,0,1,5.714,7.5a.674.674,0,0,1,.714.625v8.75a.674.674,0,0,1-.714.625A.674.674,0,0,1,5,16.875ZM19.286,1.25H13.929l-.42-.73a1.1,1.1,0,0,0-.96-.52h-5.1a1.082,1.082,0,0,0-.955.52l-.42.73H.714A.674.674,0,0,0,0,1.875v1.25a.674.674,0,0,0,.714.625H19.286A.674.674,0,0,0,20,3.125V1.875A.674.674,0,0,0,19.286,1.25Z" transform="translate(0 0)" fill="#25eaef"/>
</svg>
